<svg width="204" height="44" viewBox="0 0 204 44" fill="none" xmlns="http://www.w3.org/2000/svg">
<path fill-rule="evenodd" clip-rule="evenodd" d="M16.5 0C17.3764 0 18.217 0.347326 18.8367 0.965571L32.0321 14.1293C33.3226 15.4168 33.3226 17.5041 32.0321 18.7915C30.7416 20.079 28.6492 20.079 27.3587 18.7915L16.5 7.95885L5.64129 18.7915C4.35077 20.079 2.25841 20.079 0.967892 18.7915C-0.32263 17.5041 -0.322631 15.4168 0.967892 14.1293L14.1633 0.965571C14.783 0.347326 15.6236 0 16.5 0Z" fill="#CC00FF"/>
<path fill-rule="evenodd" clip-rule="evenodd" d="M14.1633 19.3953C15.4538 18.1078 17.5462 18.1078 18.8367 19.3953L32.0321 32.559C33.3226 33.8465 33.3226 35.9338 32.0321 37.2212C30.7416 38.5086 28.6492 38.5086 27.3587 37.2212L16.5 26.3885L5.64129 37.2212C4.35076 38.5086 2.25841 38.5086 0.967892 37.2212C-0.322631 35.9338 -0.322631 33.8465 0.967892 32.559L14.1633 19.3953Z" fill="#CC00FF"/>
<path d="M56 37.0226H63.665L65.1899 31.7198H74.7009L76.2259 37.0226H84.9342L75.8245 8.51509H65.1899L56 37.0226ZM69.9655 15.1336L73.0957 26.0981H66.7951L69.9655 15.1336Z" fill="#CC00FF"/>
<path d="M89.7928 37.0226H96.9361V7H89.7928V37.0226Z" fill="#CC00FF"/>
<path d="M103.395 44H110.578V33.9526C111.622 36.0259 113.909 37.5011 117.079 37.5011C122.016 37.5011 125.989 33.9127 125.989 26.736V26.417C125.989 19.2802 122.016 15.6121 117.12 15.6121C113.949 15.6121 111.782 17.2866 110.578 19.2802V16.1703H103.395V44ZM114.551 32.0388C111.943 32.0388 110.378 30.2446 110.378 26.6961V26.3772C110.378 22.8685 111.943 20.9946 114.551 20.9946C117.079 20.9946 118.685 22.7489 118.685 26.417V26.736C118.685 30.1649 117.24 32.0388 114.551 32.0388Z" fill="#CC00FF"/>
<path d="M133.495 44H140.357L151.594 16.1703H144.731L140.718 27.2942L136.384 16.1703H128.599L136.986 34.9095L133.495 44Z" fill="#CC00FF"/>
<path d="M156.043 37.0226H163.226V25.3405C163.226 22.6692 164.671 21.3933 166.798 21.3933C168.885 21.3933 169.808 22.5496 169.808 24.9019V37.0226H176.991V23.4666C176.991 18.1239 174.182 15.6121 170.129 15.6121C166.637 15.6121 164.35 17.3664 163.226 19.5194V16.1703H156.043V37.0226Z" fill="#CC00FF"/>
<path d="M193.365 37.5011C199.706 37.5011 203.358 34.8297 204 30.125H197.258C196.977 31.5205 195.974 32.597 193.606 32.597C191.038 32.597 189.433 31.0022 189.232 28.2511H204V26.3772C204 18.8815 199.064 15.6121 193.325 15.6121C186.985 15.6121 181.968 19.8384 181.968 26.5366V26.8556C181.968 33.6735 186.784 37.5011 193.365 37.5011ZM189.312 24.2241C189.673 21.7123 191.158 20.3168 193.325 20.3168C195.653 20.3168 196.897 21.7123 197.017 24.2241H189.312Z" fill="#CC00FF"/>
</svg>
