<svg width="19" height="19" viewBox="0 0 19 19" fill="none" xmlns="http://www.w3.org/2000/svg">
<path d="M17.4804 0H1.62348C0.75703 0 0 0.623437 0 1.47971V17.3719C0 18.2328 0.75703 19 1.62348 19H17.4757C18.3468 19 19 18.2277 19 17.3719V1.47971C19.0051 0.623437 18.3468 0 17.4804 0ZM5.88957 15.8374H3.16765V7.37437H5.88957V15.8374ZM4.62276 6.08763H4.60325C3.73214 6.08763 3.16808 5.43917 3.16808 4.62743C3.16808 3.80085 3.74698 3.16766 4.6376 3.16766C5.52823 3.16766 6.0732 3.79618 6.09271 4.62743C6.09229 5.43917 5.52823 6.08763 4.62276 6.08763ZM15.8374 15.8374H13.1155V11.21C13.1155 10.1014 12.7194 9.34393 11.7346 9.34393C10.9822 9.34393 10.5369 9.85286 10.3389 10.3486C10.2646 10.5268 10.2447 10.7694 10.2447 11.017V15.8374H7.5228V7.37437H10.2447V8.55212C10.6408 7.98806 11.2596 7.17632 12.6994 7.17632C14.4862 7.17632 15.8378 8.35406 15.8378 10.8932L15.8374 15.8374Z" fill="url(#paint0_linear_155_466)"/>
<defs>
<linearGradient id="paint0_linear_155_466" x1="9.5" y1="0" x2="9.5" y2="19" gradientUnits="userSpaceOnUse">
<stop stop-color="#E065FF"/>
<stop offset="1" stop-color="#9C00C2"/>
</linearGradient>
</defs>
</svg>
