<svg width="19" height="16" viewBox="0 0 19 16" fill="none" xmlns="http://www.w3.org/2000/svg">
<path d="M16.625 0H2.375C1.74532 0.000721921 1.14162 0.269135 0.696365 0.746344C0.251112 1.22355 0.000673578 1.87058 0 2.54545V13.4545C0.000673578 14.1294 0.251112 14.7764 0.696365 15.2537C1.14162 15.7309 1.74532 15.9993 2.375 16H16.625C17.2547 15.9993 17.8584 15.7309 18.3036 15.2537C18.7489 14.7764 18.9993 14.1294 19 13.4545V2.54545C18.9993 1.87058 18.7489 1.22355 18.3036 0.746344C17.8584 0.269135 17.2547 0.000721921 16.625 0ZM16.0236 4.21045L9.91647 9.30136C9.79738 9.40059 9.65084 9.45445 9.5 9.45445C9.34916 9.45445 9.20262 9.40059 9.08353 9.30136L2.97638 4.21045C2.90463 4.15238 2.84436 4.0796 2.79908 3.99634C2.7538 3.91309 2.72441 3.82102 2.71261 3.72548C2.70082 3.62995 2.70685 3.53285 2.73037 3.43984C2.75389 3.34683 2.79443 3.25975 2.84962 3.18367C2.90481 3.1076 2.97356 3.04403 3.05187 2.99668C3.13018 2.94932 3.21649 2.91912 3.30578 2.90782C3.39508 2.89653 3.48558 2.90436 3.57202 2.93088C3.65846 2.95739 3.73913 3.00206 3.80933 3.06227L9.5 7.80591L15.1907 3.06227C15.333 2.9471 15.5118 2.89659 15.6886 2.92166C15.8654 2.94673 16.0259 3.04536 16.1353 3.19624C16.2448 3.34711 16.2944 3.5381 16.2735 3.72789C16.2526 3.91769 16.1628 4.09104 16.0236 4.21045Z" fill="url(#paint0_linear_155_463)"/>
<defs>
<linearGradient id="paint0_linear_155_463" x1="9.5" y1="0" x2="9.5" y2="16" gradientUnits="userSpaceOnUse">
<stop stop-color="#E065FF"/>
<stop offset="1" stop-color="#9C00C2"/>
</linearGradient>
</defs>
</svg>
