<svg width="39" height="39" viewBox="0 0 39 39" fill="none" xmlns="http://www.w3.org/2000/svg">
<path d="M20.2407 30.5986L28.5793 35.8929C29.6547 36.5713 30.9783 35.562 30.6639 34.3212L28.2484 24.8244C28.1831 24.5611 28.1935 24.2848 28.2783 24.0272C28.3632 23.7696 28.5192 23.5413 28.7282 23.3684L36.2065 17.131C37.1826 16.3203 36.6863 14.6824 35.4123 14.5996L25.6508 13.9709C25.3845 13.9554 25.1284 13.8627 24.9139 13.704C24.6995 13.5454 24.5358 13.3276 24.4431 13.0775L20.8032 3.91162C20.7068 3.64674 20.5313 3.41792 20.3004 3.25623C20.0696 3.09454 19.7945 3.00781 19.5127 3.00781C19.2308 3.00781 18.9558 3.09454 18.7249 3.25623C18.494 3.41792 18.3185 3.64674 18.2222 3.91162L14.5823 13.0775C14.4895 13.3276 14.3259 13.5454 14.1114 13.704C13.8969 13.8627 13.6409 13.9554 13.3745 13.9709L3.61302 14.5996C2.33906 14.6824 1.84272 16.3203 2.81887 17.131L10.2972 23.3684C10.5062 23.5413 10.6621 23.7696 10.747 24.0272C10.8319 24.2848 10.8423 24.5611 10.777 24.8244L8.5434 33.6263C8.16287 35.1153 9.75118 36.3231 11.0251 35.5124L18.7847 30.5986C19.0023 30.4602 19.2548 30.3867 19.5127 30.3867C19.7705 30.3867 20.0231 30.4602 20.2407 30.5986Z" stroke="#FFA43C" stroke-width="4.43794" stroke-linecap="round" stroke-linejoin="round"/>
</svg>
