<svg width="35" height="34" viewBox="0 0 35 34" fill="none" xmlns="http://www.w3.org/2000/svg">
<path d="M17.936 27.5986L26.2746 32.8929C27.35 33.5713 28.6736 32.562 28.3593 31.3212L25.9437 21.8244C25.8784 21.5611 25.8888 21.2848 25.9737 21.0272C26.0585 20.7696 26.2145 20.5413 26.4235 20.3684L33.9018 14.131C34.8779 13.3203 34.3816 11.6824 33.1076 11.5996L23.3461 10.9709C23.0798 10.9554 22.8237 10.8627 22.6093 10.704C22.3948 10.5454 22.2311 10.3276 22.1384 10.0775L18.4985 0.911619C18.4021 0.64674 18.2266 0.417924 17.9957 0.256234C17.7649 0.0945445 17.4898 0.0078125 17.208 0.0078125C16.9261 0.0078125 16.6511 0.0945445 16.4202 0.256234C16.1894 0.417924 16.0138 0.64674 15.9175 0.911619L12.2776 10.0775C12.1848 10.3276 12.0212 10.5454 11.8067 10.704C11.5922 10.8627 11.3362 10.9554 11.0698 10.9709L1.30833 11.5996C0.0343752 11.6824 -0.461972 13.3203 0.514178 14.131L7.99248 20.3684C8.2015 20.5413 8.35743 20.7696 8.44232 21.0272C8.52721 21.2848 8.53759 21.5611 8.47228 21.8244L6.23872 30.6263C5.85818 32.1153 7.44649 33.3231 8.72045 32.5124L16.48 27.5986C16.6976 27.4602 16.9501 27.3867 17.208 27.3867C17.4658 27.3867 17.7184 27.4602 17.936 27.5986Z" fill="#FFA43C"/>
</svg>
