<svg width="21" height="17" viewBox="0 0 21 17" fill="none" xmlns="http://www.w3.org/2000/svg">
<path d="M21 2.01432C20.2123 2.36068 19.3788 2.58886 18.5259 2.69167C19.4222 2.16059 20.0963 1.31687 20.4216 0.318756C19.5742 0.820163 18.6487 1.17197 17.6846 1.35912C17.2787 0.928599 16.7904 0.586109 16.2496 0.352466C15.7088 0.118824 15.1266 -0.0010923 14.5386 7.49699e-06C12.1577 7.49699e-06 10.2309 1.92136 10.2309 4.28984C10.2292 4.61928 10.2666 4.94775 10.3421 5.26822C8.6348 5.18723 6.96304 4.74653 5.43374 3.9743C3.90444 3.20207 2.55127 2.11533 1.46081 0.783599C1.07825 1.4362 0.875933 2.1808 0.875 2.93958C0.875 4.42708 1.64194 5.74192 2.8 6.51223C2.11388 6.49575 1.44182 6.31199 0.840875 5.97655V6.02968C0.840875 8.1104 2.32838 9.84138 4.29712 10.2354C3.92691 10.3353 3.5454 10.3859 3.16225 10.3859C2.89038 10.3864 2.61912 10.3597 2.35244 10.3062C2.89975 12.0106 4.49269 13.2502 6.37963 13.2856C4.84635 14.4814 2.9639 15.1276 1.02812 15.1229C0.68452 15.1224 0.341235 15.1017 0 15.0609C1.96927 16.3333 4.25838 17.0064 6.59488 17C14.5294 17 18.8641 10.4612 18.8641 4.7901C18.8641 4.60416 18.8593 4.41822 18.8506 4.23671C19.6919 3.63112 20.4198 2.87854 21 2.01432Z" fill="url(#paint0_linear_155_465)"/>
<defs>
<linearGradient id="paint0_linear_155_465" x1="10.5" y1="0" x2="10.5" y2="17" gradientUnits="userSpaceOnUse">
<stop stop-color="#E065FF"/>
<stop offset="1" stop-color="#9C00C2"/>
</linearGradient>
</defs>
</svg>
